<?xml version="1.0" encoding="utf-8"?>
<!-- Generator: Adobe Illustrator 17.1.0, SVG Export Plug-In . SVG Version: 6.00 Build 0)  -->
<!DOCTYPE svg PUBLIC "-//W3C//DTD SVG 1.1//EN" "http://www.w3.org/Graphics/SVG/1.1/DTD/svg11.dtd">
<svg version="1.1" id="invoice" xmlns="http://www.w3.org/2000/svg" xmlns:xlink="http://www.w3.org/1999/xlink" x="0px" y="0px"
	 viewBox="0 0 1010 1010" enable-background="new 0 0 1010 1010" xml:space="preserve">
<g id="invoice-invoice">
	<circle id="invoice-label" fill="#FC6E51" cx="505" cy="505" r="505"/>
	<g id="invoice-invoice_1_">
		<polygon fill="#FFFFFF" points="719.5361,787.7998 290.4639,787.7998 290.4639,222.2002 641.5273,222.2002 719.5361,300.2085 		
			"/>
		<rect x="426.9814" y="358.7275" fill="#ACAF48" width="234.0557" height="58.4991"/>
		<rect x="582.2598" y="593.4434" fill="#FFB933" width="78.0175" height="58.5097"/>
		<rect x="505" y="592.7734" fill="#FFFFFF" width="78.0186" height="58.5088"/>
		<g>
			<polyline fill="#3BAFDA" points="641.5273,222.2002 641.5273,300.2085 719.5361,300.2085 			"/>
			<polygon fill="#454545" points="719.5361,309.9731 631.7627,309.9731 631.7627,222.2002 651.292,222.2002 651.292,290.4438 
				719.5361,290.4438 719.5361,309.9731 			"/>
		</g>
		<g>
			<g>
				<path fill="#454545" d="M729.6367,797.9004H280.3638V212.0996H645.71l83.9266,83.9268V797.9004L729.6367,797.9004z
					 M300.564,777.7002h408.8725V304.3906l-72.0908-72.0908H300.564V777.7002L300.564,777.7002z"/>
			</g>
		</g>
		<g>
			<polygon fill="#454545" points="475.7358,290.8086 339.2178,290.8086 339.2178,270.6089 475.7358,270.6089 475.7358,290.8086 			
				"/>
		</g>
		<g>
			<path fill="#454545" d="M671.1367,661.3828H338.873V348.6274h332.2637V661.3828L671.1367,661.3828z M359.0728,641.1816h291.8647
				V368.8271H359.0728V641.1816L359.0728,641.1816z"/>
		</g>
		<g>
			<polygon fill="#454545" points="670.7822,710.4814 514.7549,710.4814 514.7549,690.2812 670.7822,690.2812 670.7822,710.4814 			
				"/>
		</g>
		<g>
			<polygon fill="#454545" points="612.2734,739.3906 514.7549,739.3906 514.7549,719.1914 612.2734,719.1914 612.2734,739.3906 			
				"/>
		</g>
		<g>
			<polygon fill="#454545" points="661.0371,427.3267 348.9727,427.3267 348.9727,407.1265 661.0371,407.1265 661.0371,427.3267 			
				"/>
		</g>
		<g>
			<polygon fill="#454545" points="437.0815,651.2822 416.8818,651.2822 416.8818,358.7275 437.0815,358.7275 437.0815,651.2822 			
				"/>
		</g>
		<g>
			<g>
				<polygon fill="#454545" points="515.1001,651.2822 494.9004,651.2822 494.9004,417.2266 515.1001,417.2266 515.1001,651.2822 
									"/>
			</g>
		</g>
		<g>
			<polygon fill="#454545" points="593.1191,651.2822 572.9189,651.2822 572.9189,417.2266 593.1191,417.2266 593.1191,651.2822 			
				"/>
		</g>
		<g>
			<polygon fill="#454545" points="661.0371,485.8457 426.9814,485.8457 426.9814,465.6455 661.0371,465.6455 661.0371,485.8457 			
				"/>
		</g>
		<g>
			<polygon fill="#454545" points="661.0371,544.3545 426.9814,544.3545 426.9814,524.1543 661.0371,524.1543 661.0371,544.3545 			
				"/>
		</g>
		<g>
			<polygon fill="#454545" points="661.0371,602.873 426.9814,602.873 426.9814,582.6738 661.0371,582.6738 661.0371,602.873 			"/>
		</g>
	</g>
</g>
</svg>
